<mxfile host="app.diagrams.net" agent="Mozilla/5.0 (Macintosh; Intel Mac OS X 10.15; rv:142.0) Gecko/20100101 Firefox/142.0" version="28.2.1">
  <diagram name="Page-1" id="E0s6_nf6_iKx5MB59RVb">
    <mxGraphModel dx="1356" dy="2091" grid="1" gridSize="10" guides="1" tooltips="1" connect="1" arrows="1" fold="1" page="1" pageScale="1" pageWidth="1400" pageHeight="850" math="0" shadow="0">
      <root>
        <mxCell id="0" />
        <mxCell id="1" style="" parent="0" />
        <mxCell id="R1Pq4dBKGzLEdOx824vv-16" value="&lt;font style=&quot;font-size: 24px;&quot;&gt;Diagrama de Arquitectura de SoluciÃ³n de App Multi contenedor&lt;/font&gt;" style="swimlane;whiteSpace=wrap;html=1;startSize=40;" parent="1" vertex="1">
          <mxGeometry x="50" width="1300" height="870" as="geometry" />
        </mxCell>
        <mxCell id="R1Pq4dBKGzLEdOx824vv-4" value="Region - Virginia" style="points=[[0,0],[0.25,0],[0.5,0],[0.75,0],[1,0],[1,0.25],[1,0.5],[1,0.75],[1,1],[0.75,1],[0.5,1],[0.25,1],[0,1],[0,0.75],[0,0.5],[0,0.25]];outlineConnect=0;gradientColor=none;html=1;whiteSpace=wrap;fontSize=12;fontStyle=0;container=1;pointerEvents=0;collapsible=0;recursiveResize=0;shape=mxgraph.aws4.group;grIcon=mxgraph.aws4.group_region;strokeColor=#00A4A6;fillColor=none;verticalAlign=top;align=left;spacingLeft=30;fontColor=#147EBA;dashed=1;" parent="R1Pq4dBKGzLEdOx824vv-16" vertex="1">
          <mxGeometry x="20" y="70" width="1260" height="780" as="geometry" />
        </mxCell>
        <mxCell id="R1Pq4dBKGzLEdOx824vv-2" value="&lt;div&gt;AWS Account A&lt;/div&gt;&lt;div&gt;&lt;br&gt;&lt;/div&gt;" style="points=[[0,0],[0.25,0],[0.5,0],[0.75,0],[1,0],[1,0.25],[1,0.5],[1,0.75],[1,1],[0.75,1],[0.5,1],[0.25,1],[0,1],[0,0.75],[0,0.5],[0,0.25]];outlineConnect=0;gradientColor=none;html=1;whiteSpace=wrap;fontSize=12;fontStyle=0;container=1;pointerEvents=0;collapsible=0;recursiveResize=0;shape=mxgraph.aws4.group;grIcon=mxgraph.aws4.group_account;strokeColor=#CD2264;fillColor=none;verticalAlign=top;align=left;spacingLeft=30;fontColor=#CD2264;dashed=0;" parent="R1Pq4dBKGzLEdOx824vv-4" vertex="1">
          <mxGeometry x="20" y="40" width="800" height="720" as="geometry" />
        </mxCell>
        <mxCell id="R1Pq4dBKGzLEdOx824vv-13" value="VPC" style="points=[[0,0],[0.25,0],[0.5,0],[0.75,0],[1,0],[1,0.25],[1,0.5],[1,0.75],[1,1],[0.75,1],[0.5,1],[0.25,1],[0,1],[0,0.75],[0,0.5],[0,0.25]];outlineConnect=0;gradientColor=none;html=1;whiteSpace=wrap;fontSize=12;fontStyle=0;container=1;pointerEvents=0;collapsible=0;recursiveResize=0;shape=mxgraph.aws4.group;grIcon=mxgraph.aws4.group_vpc2;strokeColor=#8C4FFF;fillColor=none;verticalAlign=top;align=left;spacingLeft=30;fontColor=#AAB7B8;dashed=0;" parent="R1Pq4dBKGzLEdOx824vv-2" vertex="1">
          <mxGeometry x="30" y="40" width="740" height="660" as="geometry" />
        </mxCell>
        <mxCell id="R1Pq4dBKGzLEdOx824vv-44" value="Availability Zone" style="fillColor=none;strokeColor=#147EBA;dashed=1;verticalAlign=top;fontStyle=0;fontColor=#147EBA;whiteSpace=wrap;html=1;container=1;" parent="R1Pq4dBKGzLEdOx824vv-13" vertex="1">
          <mxGeometry x="20" y="340" width="330" height="300" as="geometry" />
        </mxCell>
        <mxCell id="R1Pq4dBKGzLEdOx824vv-17" value="Private subnet" style="points=[[0,0],[0.25,0],[0.5,0],[0.75,0],[1,0],[1,0.25],[1,0.5],[1,0.75],[1,1],[0.75,1],[0.5,1],[0.25,1],[0,1],[0,0.75],[0,0.5],[0,0.25]];outlineConnect=0;gradientColor=none;html=1;whiteSpace=wrap;fontSize=12;fontStyle=0;container=1;pointerEvents=0;collapsible=0;recursiveResize=0;shape=mxgraph.aws4.group;grIcon=mxgraph.aws4.group_security_group;grStroke=0;strokeColor=#00A4A6;fillColor=#E6F6F7;verticalAlign=top;align=left;spacingLeft=30;fontColor=#147EBA;dashed=0;" parent="R1Pq4dBKGzLEdOx824vv-44" vertex="1">
          <mxGeometry x="30" y="25" width="270" height="250" as="geometry" />
        </mxCell>
        <mxCell id="R1Pq4dBKGzLEdOx824vv-41" value="EC2 instance contents" style="points=[[0,0],[0.25,0],[0.5,0],[0.75,0],[1,0],[1,0.25],[1,0.5],[1,0.75],[1,1],[0.75,1],[0.5,1],[0.25,1],[0,1],[0,0.75],[0,0.5],[0,0.25]];outlineConnect=0;gradientColor=none;html=1;whiteSpace=wrap;fontSize=12;fontStyle=0;container=1;pointerEvents=0;collapsible=0;recursiveResize=0;shape=mxgraph.aws4.group;grIcon=mxgraph.aws4.group_ec2_instance_contents;strokeColor=#D86613;fillColor=none;verticalAlign=top;align=left;spacingLeft=30;fontColor=#D86613;dashed=0;" parent="R1Pq4dBKGzLEdOx824vv-17" vertex="1">
          <mxGeometry x="20" y="30" width="230" height="200" as="geometry" />
        </mxCell>
        <mxCell id="R1Pq4dBKGzLEdOx824vv-34" value="" style="outlineConnect=0;dashed=0;verticalLabelPosition=bottom;verticalAlign=top;align=center;html=1;shape=mxgraph.aws3.ec2_compute_container;fillColor=#F58534;gradientColor=none;" parent="R1Pq4dBKGzLEdOx824vv-41" vertex="1">
          <mxGeometry x="76" y="80" width="78" height="40" as="geometry" />
        </mxCell>
        <mxCell id="R1Pq4dBKGzLEdOx824vv-46" value="Availability Zone" style="fillColor=none;strokeColor=#147EBA;dashed=1;verticalAlign=top;fontStyle=0;fontColor=#147EBA;whiteSpace=wrap;html=1;container=1;" parent="R1Pq4dBKGzLEdOx824vv-13" vertex="1">
          <mxGeometry x="370" y="30" width="330" height="300" as="geometry" />
        </mxCell>
        <mxCell id="R1Pq4dBKGzLEdOx824vv-47" value="Public subnet" style="points=[[0,0],[0.25,0],[0.5,0],[0.75,0],[1,0],[1,0.25],[1,0.5],[1,0.75],[1,1],[0.75,1],[0.5,1],[0.25,1],[0,1],[0,0.75],[0,0.5],[0,0.25]];outlineConnect=0;gradientColor=none;html=1;whiteSpace=wrap;fontSize=12;fontStyle=0;container=1;pointerEvents=0;collapsible=0;recursiveResize=0;shape=mxgraph.aws4.group;grIcon=mxgraph.aws4.group_security_group;grStroke=0;strokeColor=#7AA116;fillColor=#F2F6E8;verticalAlign=top;align=left;spacingLeft=30;fontColor=#248814;dashed=0;" parent="R1Pq4dBKGzLEdOx824vv-46" vertex="1">
          <mxGeometry x="30" y="25" width="270" height="250" as="geometry" />
        </mxCell>
        <mxCell id="R1Pq4dBKGzLEdOx824vv-39" value="EC2 instance contents" style="points=[[0,0],[0.25,0],[0.5,0],[0.75,0],[1,0],[1,0.25],[1,0.5],[1,0.75],[1,1],[0.75,1],[0.5,1],[0.25,1],[0,1],[0,0.75],[0,0.5],[0,0.25]];outlineConnect=0;gradientColor=none;html=1;whiteSpace=wrap;fontSize=12;fontStyle=0;container=1;pointerEvents=0;collapsible=0;recursiveResize=0;shape=mxgraph.aws4.group;grIcon=mxgraph.aws4.group_ec2_instance_contents;strokeColor=#D86613;fillColor=none;verticalAlign=top;align=left;spacingLeft=30;fontColor=#D86613;dashed=0;" parent="R1Pq4dBKGzLEdOx824vv-47" vertex="1">
          <mxGeometry x="20" y="40" width="230" height="190" as="geometry" />
        </mxCell>
        <mxCell id="R1Pq4dBKGzLEdOx824vv-33" value="" style="outlineConnect=0;dashed=0;verticalLabelPosition=bottom;verticalAlign=top;align=center;html=1;shape=mxgraph.aws3.ec2_compute_container;fillColor=#F58534;gradientColor=none;" parent="R1Pq4dBKGzLEdOx824vv-39" vertex="1">
          <mxGeometry x="76" y="75" width="78" height="40" as="geometry" />
        </mxCell>
        <mxCell id="R1Pq4dBKGzLEdOx824vv-18" value="Availability Zone" style="fillColor=none;strokeColor=#147EBA;dashed=1;verticalAlign=top;fontStyle=0;fontColor=#147EBA;whiteSpace=wrap;html=1;container=1;" parent="R1Pq4dBKGzLEdOx824vv-13" vertex="1">
          <mxGeometry x="20" y="30" width="330" height="300" as="geometry" />
        </mxCell>
        <mxCell id="R1Pq4dBKGzLEdOx824vv-14" value="Public subnet" style="points=[[0,0],[0.25,0],[0.5,0],[0.75,0],[1,0],[1,0.25],[1,0.5],[1,0.75],[1,1],[0.75,1],[0.5,1],[0.25,1],[0,1],[0,0.75],[0,0.5],[0,0.25]];outlineConnect=0;gradientColor=none;html=1;whiteSpace=wrap;fontSize=12;fontStyle=0;container=1;pointerEvents=0;collapsible=0;recursiveResize=0;shape=mxgraph.aws4.group;grIcon=mxgraph.aws4.group_security_group;grStroke=0;strokeColor=#7AA116;fillColor=#F2F6E8;verticalAlign=top;align=left;spacingLeft=30;fontColor=#248814;dashed=0;" parent="R1Pq4dBKGzLEdOx824vv-18" vertex="1">
          <mxGeometry x="30" y="25" width="270" height="250" as="geometry" />
        </mxCell>
        <mxCell id="R1Pq4dBKGzLEdOx824vv-38" value="EC2 instance contents" style="points=[[0,0],[0.25,0],[0.5,0],[0.75,0],[1,0],[1,0.25],[1,0.5],[1,0.75],[1,1],[0.75,1],[0.5,1],[0.25,1],[0,1],[0,0.75],[0,0.5],[0,0.25]];outlineConnect=0;gradientColor=none;html=1;whiteSpace=wrap;fontSize=12;fontStyle=0;container=1;pointerEvents=0;collapsible=0;recursiveResize=0;shape=mxgraph.aws4.group;grIcon=mxgraph.aws4.group_ec2_instance_contents;strokeColor=#D86613;fillColor=none;verticalAlign=top;align=left;spacingLeft=30;fontColor=#D86613;dashed=0;" parent="R1Pq4dBKGzLEdOx824vv-14" vertex="1">
          <mxGeometry x="20" y="40" width="230" height="190" as="geometry" />
        </mxCell>
        <mxCell id="R1Pq4dBKGzLEdOx824vv-32" value="" style="outlineConnect=0;dashed=0;verticalLabelPosition=bottom;verticalAlign=top;align=center;html=1;shape=mxgraph.aws3.ec2_compute_container;fillColor=#F58534;gradientColor=none;" parent="R1Pq4dBKGzLEdOx824vv-38" vertex="1">
          <mxGeometry x="76" y="75" width="78" height="40" as="geometry" />
        </mxCell>
        <mxCell id="R1Pq4dBKGzLEdOx824vv-31" value="Security group" style="fillColor=none;strokeColor=#DD3522;verticalAlign=top;fontStyle=0;fontColor=#DD3522;whiteSpace=wrap;html=1;container=0;" parent="R1Pq4dBKGzLEdOx824vv-13" vertex="1">
          <mxGeometry x="10" y="130" width="700" height="120" as="geometry" />
        </mxCell>
        <mxCell id="R1Pq4dBKGzLEdOx824vv-45" value="Availability Zone" style="fillColor=none;strokeColor=#147EBA;dashed=1;verticalAlign=top;fontStyle=0;fontColor=#147EBA;whiteSpace=wrap;html=1;container=1;" parent="R1Pq4dBKGzLEdOx824vv-13" vertex="1">
          <mxGeometry x="370" y="340" width="330" height="300" as="geometry" />
        </mxCell>
        <mxCell id="R1Pq4dBKGzLEdOx824vv-30" value="Private subnet" style="points=[[0,0],[0.25,0],[0.5,0],[0.75,0],[1,0],[1,0.25],[1,0.5],[1,0.75],[1,1],[0.75,1],[0.5,1],[0.25,1],[0,1],[0,0.75],[0,0.5],[0,0.25]];outlineConnect=0;gradientColor=none;html=1;whiteSpace=wrap;fontSize=12;fontStyle=0;container=1;pointerEvents=0;collapsible=0;recursiveResize=0;shape=mxgraph.aws4.group;grIcon=mxgraph.aws4.group_security_group;grStroke=0;strokeColor=#00A4A6;fillColor=#E6F6F7;verticalAlign=top;align=left;spacingLeft=30;fontColor=#147EBA;dashed=0;" parent="R1Pq4dBKGzLEdOx824vv-45" vertex="1">
          <mxGeometry x="27.5" y="25" width="275" height="250" as="geometry" />
        </mxCell>
        <mxCell id="R1Pq4dBKGzLEdOx824vv-40" value="EC2 instance contents" style="points=[[0,0],[0.25,0],[0.5,0],[0.75,0],[1,0],[1,0.25],[1,0.5],[1,0.75],[1,1],[0.75,1],[0.5,1],[0.25,1],[0,1],[0,0.75],[0,0.5],[0,0.25]];outlineConnect=0;gradientColor=none;html=1;whiteSpace=wrap;fontSize=12;fontStyle=0;container=1;pointerEvents=0;collapsible=0;recursiveResize=0;shape=mxgraph.aws4.group;grIcon=mxgraph.aws4.group_ec2_instance_contents;strokeColor=#D86613;fillColor=none;verticalAlign=top;align=left;spacingLeft=30;fontColor=#D86613;dashed=0;" parent="R1Pq4dBKGzLEdOx824vv-30" vertex="1">
          <mxGeometry x="22.5" y="30" width="230" height="200" as="geometry" />
        </mxCell>
        <mxCell id="R1Pq4dBKGzLEdOx824vv-35" value="" style="outlineConnect=0;dashed=0;verticalLabelPosition=bottom;verticalAlign=top;align=center;html=1;shape=mxgraph.aws3.ec2_compute_container;fillColor=#F58534;gradientColor=none;" parent="R1Pq4dBKGzLEdOx824vv-40" vertex="1">
          <mxGeometry x="76" y="80" width="78" height="40" as="geometry" />
        </mxCell>
        <mxCell id="R1Pq4dBKGzLEdOx824vv-20" value="Security group" style="fillColor=none;strokeColor=#DD3522;verticalAlign=top;fontStyle=0;fontColor=#DD3522;whiteSpace=wrap;html=1;" parent="R1Pq4dBKGzLEdOx824vv-13" vertex="1">
          <mxGeometry x="10" y="430" width="700" height="130" as="geometry" />
        </mxCell>
        <mxCell id="R1Pq4dBKGzLEdOx824vv-49" value="&lt;div&gt;Peering&lt;/div&gt;&lt;div&gt;Connection&lt;/div&gt;" style="sketch=0;outlineConnect=0;fontColor=#232F3E;gradientColor=none;fillColor=#8C4FFF;strokeColor=none;dashed=0;verticalLabelPosition=bottom;verticalAlign=top;align=center;html=1;fontSize=12;fontStyle=0;aspect=fixed;pointerEvents=1;shape=mxgraph.aws4.peering;" parent="R1Pq4dBKGzLEdOx824vv-4" vertex="1">
          <mxGeometry x="1010" y="570" width="60" height="60" as="geometry" />
        </mxCell>
        <mxCell id="R1Pq4dBKGzLEdOx824vv-7" value="AWS Account B" style="points=[[0,0],[0.25,0],[0.5,0],[0.75,0],[1,0],[1,0.25],[1,0.5],[1,0.75],[1,1],[0.75,1],[0.5,1],[0.25,1],[0,1],[0,0.75],[0,0.5],[0,0.25]];outlineConnect=0;gradientColor=none;html=1;whiteSpace=wrap;fontSize=12;fontStyle=0;container=1;pointerEvents=0;collapsible=0;recursiveResize=0;shape=mxgraph.aws4.group;grIcon=mxgraph.aws4.group_account;strokeColor=#CD2264;fillColor=none;verticalAlign=top;align=left;spacingLeft=30;fontColor=#CD2264;dashed=0;" parent="R1Pq4dBKGzLEdOx824vv-4" vertex="1">
          <mxGeometry x="850" y="150" width="380" height="370" as="geometry" />
        </mxCell>
        <mxCell id="R1Pq4dBKGzLEdOx824vv-21" value="VPC" style="points=[[0,0],[0.25,0],[0.5,0],[0.75,0],[1,0],[1,0.25],[1,0.5],[1,0.75],[1,1],[0.75,1],[0.5,1],[0.25,1],[0,1],[0,0.75],[0,0.5],[0,0.25]];outlineConnect=0;gradientColor=none;html=1;whiteSpace=wrap;fontSize=12;fontStyle=0;container=1;pointerEvents=0;collapsible=0;recursiveResize=0;shape=mxgraph.aws4.group;grIcon=mxgraph.aws4.group_vpc2;strokeColor=#8C4FFF;fillColor=none;verticalAlign=top;align=left;spacingLeft=30;fontColor=#AAB7B8;dashed=0;" parent="R1Pq4dBKGzLEdOx824vv-7" vertex="1">
          <mxGeometry x="30" y="40" width="320" height="290" as="geometry" />
        </mxCell>
        <mxCell id="R1Pq4dBKGzLEdOx824vv-54" value="Availability Zone" style="fillColor=none;strokeColor=#147EBA;dashed=1;verticalAlign=top;fontStyle=0;fontColor=#147EBA;whiteSpace=wrap;html=1;container=1;" parent="R1Pq4dBKGzLEdOx824vv-21" vertex="1">
          <mxGeometry x="30" y="30" width="260" height="240" as="geometry" />
        </mxCell>
        <mxCell id="R1Pq4dBKGzLEdOx824vv-55" value="Private subnet" style="points=[[0,0],[0.25,0],[0.5,0],[0.75,0],[1,0],[1,0.25],[1,0.5],[1,0.75],[1,1],[0.75,1],[0.5,1],[0.25,1],[0,1],[0,0.75],[0,0.5],[0,0.25]];outlineConnect=0;gradientColor=none;html=1;whiteSpace=wrap;fontSize=12;fontStyle=0;container=1;pointerEvents=0;collapsible=0;recursiveResize=0;shape=mxgraph.aws4.group;grIcon=mxgraph.aws4.group_security_group;grStroke=0;strokeColor=#00A4A6;fillColor=#E6F6F7;verticalAlign=top;align=left;spacingLeft=30;fontColor=#147EBA;dashed=0;" parent="R1Pq4dBKGzLEdOx824vv-54" vertex="1">
          <mxGeometry x="21.666666666666664" y="19.999999999999996" width="216.66666666666663" height="200" as="geometry" />
        </mxCell>
        <mxCell id="R1Pq4dBKGzLEdOx824vv-56" value="EC2 instance contents" style="points=[[0,0],[0.25,0],[0.5,0],[0.75,0],[1,0],[1,0.25],[1,0.5],[1,0.75],[1,1],[0.75,1],[0.5,1],[0.25,1],[0,1],[0,0.75],[0,0.5],[0,0.25]];outlineConnect=0;gradientColor=none;html=1;whiteSpace=wrap;fontSize=12;fontStyle=0;container=1;pointerEvents=0;collapsible=0;recursiveResize=0;shape=mxgraph.aws4.group;grIcon=mxgraph.aws4.group_ec2_instance_contents;strokeColor=#D86613;fillColor=none;verticalAlign=top;align=left;spacingLeft=30;fontColor=#D86613;dashed=0;" parent="R1Pq4dBKGzLEdOx824vv-55" vertex="1">
          <mxGeometry x="17.727272727272727" y="24" width="181.21212121212122" height="159.99999999999997" as="geometry" />
        </mxCell>
        <mxCell id="R1Pq4dBKGzLEdOx824vv-57" value="" style="outlineConnect=0;dashed=0;verticalLabelPosition=bottom;verticalAlign=top;align=center;html=1;shape=mxgraph.aws3.ec2_compute_container;fillColor=#F58534;gradientColor=none;" parent="R1Pq4dBKGzLEdOx824vv-56" vertex="1">
          <mxGeometry x="59.878787878787875" y="63.99999999999998" width="61.45454545454546" height="31.99999999999999" as="geometry" />
        </mxCell>
        <mxCell id="R1Pq4dBKGzLEdOx824vv-58" value="Security group" style="fillColor=none;strokeColor=#DD3522;verticalAlign=top;fontStyle=0;fontColor=#DD3522;whiteSpace=wrap;html=1;" parent="R1Pq4dBKGzLEdOx824vv-21" vertex="1">
          <mxGeometry x="20" y="110" width="280" height="90" as="geometry" />
        </mxCell>
        <mxCell id="R1Pq4dBKGzLEdOx824vv-50" style="edgeStyle=orthogonalEdgeStyle;rounded=0;orthogonalLoop=1;jettySize=auto;html=1;" parent="R1Pq4dBKGzLEdOx824vv-4" source="R1Pq4dBKGzLEdOx824vv-13" target="R1Pq4dBKGzLEdOx824vv-49" edge="1">
          <mxGeometry relative="1" as="geometry">
            <mxPoint x="800" y="600" as="sourcePoint" />
            <Array as="points">
              <mxPoint x="860" y="600" />
              <mxPoint x="860" y="600" />
            </Array>
          </mxGeometry>
        </mxCell>
        <mxCell id="R1Pq4dBKGzLEdOx824vv-51" style="edgeStyle=orthogonalEdgeStyle;rounded=0;orthogonalLoop=1;jettySize=auto;html=1;exitX=0.5;exitY=1;exitDx=0;exitDy=0;" parent="R1Pq4dBKGzLEdOx824vv-4" source="R1Pq4dBKGzLEdOx824vv-21" target="R1Pq4dBKGzLEdOx824vv-49" edge="1">
          <mxGeometry relative="1" as="geometry" />
        </mxCell>
        <mxCell id="BU9CDgSDGJBRW09tUWaL-4" value="" style="outlineConnect=0;dashed=0;verticalLabelPosition=bottom;verticalAlign=top;align=center;html=1;shape=mxgraph.aws3.ec2_compute_container;fillColor=#F58534;gradientColor=none;" parent="1" vertex="1">
          <mxGeometry x="170" y="1030" width="78" height="40" as="geometry" />
        </mxCell>
        <mxCell id="sIa1EOM6SMQ7vBQXaoTd-5" style="edgeStyle=orthogonalEdgeStyle;rounded=0;orthogonalLoop=1;jettySize=auto;html=1;exitX=1;exitY=0.5;exitDx=0;exitDy=0;entryX=0;entryY=0.5;entryDx=0;entryDy=0;entryPerimeter=0;" edge="1" parent="1" source="sIa1EOM6SMQ7vBQXaoTd-1" target="sIa1EOM6SMQ7vBQXaoTd-9">
          <mxGeometry relative="1" as="geometry">
            <mxPoint x="649.96" y="-193.03999999999996" as="targetPoint" />
            <Array as="points" />
          </mxGeometry>
        </mxCell>
        <mxCell id="R1Pq4dBKGzLEdOx824vv-37" style="edgeStyle=orthogonalEdgeStyle;rounded=0;orthogonalLoop=1;jettySize=auto;html=1;exitX=0;exitY=0.5;exitDx=0;exitDy=0;" parent="1" source="sIa1EOM6SMQ7vBQXaoTd-8" edge="1">
          <mxGeometry relative="1" as="geometry">
            <mxPoint x="881.8400000000001" y="-190.55200000000013" as="sourcePoint" />
            <mxPoint x="740" y="-190" as="targetPoint" />
          </mxGeometry>
        </mxCell>
        <mxCell id="R1Pq4dBKGzLEdOx824vv-62" style="edgeStyle=orthogonalEdgeStyle;rounded=0;orthogonalLoop=1;jettySize=auto;html=1;" parent="1" source="R1Pq4dBKGzLEdOx824vv-16" target="sIa1EOM6SMQ7vBQXaoTd-9" edge="1">
          <mxGeometry relative="1" as="geometry">
            <Array as="points">
              <mxPoint x="705" y="-40" />
              <mxPoint x="705" y="-40" />
            </Array>
            <mxPoint x="706" y="-150" as="targetPoint" />
          </mxGeometry>
        </mxCell>
        <mxCell id="sIa1EOM6SMQ7vBQXaoTd-1" value="OthersÂ &#xa;Microservices" style="shape=ellipse;fillColor=#A56EFF;aspect=fixed;resizable=1;labelPosition=center;verticalLabelPosition=bottom;align=center;verticalAlign=top;strokeColor=none;fontSize=14;autosize=0;" vertex="1" parent="1">
          <mxGeometry x="450" y="-230" width="74" height="74" as="geometry" />
        </mxCell>
        <mxCell id="sIa1EOM6SMQ7vBQXaoTd-2" value="" style="fillColor=#ffffff;strokeColor=none;dashed=0;outlineConnect=0;html=1;labelPosition=center;verticalLabelPosition=bottom;verticalAlign=top;part=1;movable=0;resizable=1;rotatable=0;shape=mxgraph.ibm_cloud.microservices--1" vertex="1" parent="sIa1EOM6SMQ7vBQXaoTd-1">
          <mxGeometry width="50" height="50" relative="1" as="geometry">
            <mxPoint x="12" y="12" as="offset" />
          </mxGeometry>
        </mxCell>
        <mxCell id="sIa1EOM6SMQ7vBQXaoTd-7" value="" style="sketch=0;points=[[0,0,0],[0.25,0,0],[0.5,0,0],[0.75,0,0],[1,0,0],[0,1,0],[0.25,1,0],[0.5,1,0],[0.75,1,0],[1,1,0],[0,0.25,0],[0,0.5,0],[0,0.75,0],[1,0.25,0],[1,0.5,0],[1,0.75,0]];outlineConnect=0;fontColor=#232F3E;fillColor=#DD344C;strokeColor=#ffffff;dashed=0;verticalLabelPosition=bottom;verticalAlign=top;align=center;html=1;fontSize=12;fontStyle=0;aspect=fixed;shape=mxgraph.aws4.resourceIcon;resIcon=mxgraph.aws4.amplify;" vertex="1" parent="1">
          <mxGeometry x="666" y="-390" width="78" height="78" as="geometry" />
        </mxCell>
        <mxCell id="sIa1EOM6SMQ7vBQXaoTd-8" value="" style="shape=image;verticalLabelPosition=bottom;labelBackgroundColor=default;verticalAlign=top;aspect=fixed;imageAspect=0;image=data:image/png,iVBORw0KGgoAAAANSUhEUgAAApMAAADICAMAAACDHprSAAAAY1BMVEUAAAD/bDf/bDf/bDf/bDf/bDf/bDf/bDf/bDf/bDf/bDf/bDf/bDf/bDf/bDf/bDf/bDf/kWn/o4L/tpv/flD/mnb/0cH/////49r/7eb/v6j/dUT/iF3/9vP/2s3/yLT/rI+dBxseAAAAEHRSTlMAEEBggI+/3yBwn89Qr+8wUeHeTwAAAAlwSFlzAAAXEQAAFxEByibzPwAAAAd0SU1FB+UFCgk7A4dqyogAABHvSURBVHja7Z3pYqssEIYrKm5xiWmbtNl6/1d5kjQquMAgAp5m3l/f0mCij8PMMAxvbybkET8IKY0qThGlYeCT+A2FsimSpLSSiKYB8fBWocwr9tOsAitKfbSYKIPyNmFUKevGJdpLlBEg/byarSxBc4laEZCIJWr5kCatFlHu471ELWEik6haTEWIxhKlG2anRbWscoJ3FeV+0u5lLpFK1FwiaWVI0QbvLmrGrG2MSLSVqFmRTVoZFsVoB6WioKjMK8TlHRTYkYwqKyowX4mCTdt5ZU04gaMA2hSVTQV4x1HrMZLPdXA0lSihJ1lU1oVeJUqgsHKiHANw1LjirHKkrMS7j1rJvI3zN0qgpHKqEJ8Aqqe0cix0KlF8CohWzpUhlCgGyaxagSKMdFCNyqJahQqEErUuJBFK1OqQRChRq0MSoUStDkmEErU6JBHKl1e8OiQRyhfXOvKSgzwlJs9fWKtEEld0XllptVKl+GxeVEG1WuEundfUxh1y23q3223fBX+BzVswC2RRH5/7pw67dwy+Uc5D7o+vPavvI8Y5KKfxzfFz39PXCeMclENn8njoI7k/n9ClRN3lZv1mAsnthEuJzQheSm62OlxGkbzuJ0wlxef0QnKzR/FnAsn9YeIDCT4pnLnNztznCST3+x3O3jhzu9BuEsn9ucLZG2NuB/qaRHK/rzH2fml5bhZwTgIk959YtvbSctQ8bTeF5OE8PXljMcZrBDiOlrmvE0h+Pyzo1BJjhWEOBjh2kpPMxH2LuT/3++1kGyF8Yn9epFoBk6wveXhM65NMVni4E5pJC0xy4c1ZwiTmg9BMWvAnWSTvIfdV4E+ioUQzaSPu5pi8/ct5Ou5GQ4lm0uB+h4m5+7EO/in6JBpKNJOGdB6H8vtbsI6DhhLNpK2kOWcp98Kp+ybcm/OH5XRDN1cXxEO5w+3eryo3Szin7fY0XF1kofw6SobAxZw/KwdNBrbXh3X82t2xO0xAucUWBC8r6wVB2y5R/rXtV/W2UNbScSJ8dn9Uvu1Jm1m6uX7cDeXpawTKGjAU1lH+Udk9BvnIuI+Hpt/FcVCJ8f0BGQwrMTDCWcBIMibxcLw7lpfPu0X8OYM2d/eFtb1/UlY3K7Ix9g3JZ/+LO5zHnzbUOV/foePhFsY/KYsNgrgp+o5kg+Hl8b/fP3Y3/ZwURszw+eHUrTVvnyeQ3O9Pc8eEpSiDaIxnGmzU534SpPSuPNjMSY+WSUh/v0wBGMKPALegEJzdS/KCpvLCAJLffpDSz/Fvn6Chyke8IKuKnEz/b1ploWd56q73k0jKVmw0J29BZiEnak+CpzpRwzIevhuRiBjohvvJPG0JW/D63YpVKLygz5U/ldaLz49Mncj+fFHtTt1XAZLzmQQVYggXBTIwlWPWNoVTGaeqXwBqLyJZSiWE0KLgnMcz6mCoMH/XlFw8TKYtV/IgQnL/M3tgT5dJ6BHhm4l5NISZF09QVBDO+96dZBwI6/o26stiyYzER/Ndxs0xy6SlhPlJjOT5OHtkX59JyGnMAqRAZzmX0YzcP/ThZFImBSte3b5+OJOZ0u3vfZdAxqSdkiAuuhkiCVqz0SgOktobeQciUYUpwKuSdOQOZLjM9CcpgJ1AvXwgnrNq0X6XUUPJMhnZQJKLbkaspAaSoDXvYL6l4aKA9pqUcm64NDrodeQubjFrBIGqhHj7gribym8Twz2YSX/OqgUVXodh0kom6EeC5HT/04WyQcGo21UmEbTEiLCx9tMqkrQAR1rMS5EFpL1+rrpurwoPlf/AYEaZVT6n5IAKX2GGSRvu5FWM5OG+un2dP7w/l8n7zy9gaLfmKiLjPqY4du9sESW9pFykFL1qMDlhy+MZpX/erMJq8fvBMJm6R/J4/xOzDuUkk8ykGkDMZP/UCR9mKBPBRTY5MO7XZHLiQ+kMJjlDVizzfjBMGncn+YqfIZKfv//haNShnGaygzICzFXDe+krmdlQd9FNh8lRQxnPKZHmDRlZ5P3omDSenezF1wMkb3P2+0GyZ1Y/QylgslnqEO44E7gJFJBvbh68fodCHSZHP5XOYfLpiURqL5r4/eiYJI6R/HmmibY6FyFaTLaPJZBO3ZGANwpISusXMWkxOWIoy2oGk8+fU/hqxf7i96Nj0vBOnJMEyZsX+XFuy4LmKtBjMpZm2gIRU1SylMJ8vnTL5IjnTecw+cyLpZ7azxK/Hx2TZkMcPlM+QPKeA6phm8E0gxwhk423l0n9p1Lk8MdzL2+PycF3JNUcJqPGkaFKHxPz3zFJHSJ5P73um6menC2qyWQoQ4ZCzCx5m/d5G0wWE28vncNk2brxiVINKxWunHVMOkTyNwf00LvmlTSZ9IFMZkJO1swkpaOGsuGAKg0btpagVKphpcLZrWUydofkZ/fvO91LxXpMEhkyYnssf6DUtT9JySgILalKw2adcx2pxG6UfwEm3g+TYbcEyWsXkx+0r0WWYdIzxWTgOu6mb2OG0m9BVRk2ZkYKVeowGu+Tjr4fLZPmVhZrMZI/DLQn7Yv5QCYLR3YyUCgXMcRkOfIbopYulWET5rdsVOowGibjUUPZPgRjqSC+EGiAZF1V2/N+oZkbcC8DIVTGmSTqBYpLM9nmDsjATIZqw1I2U14oFFG2UXo6ZijbhxA6QfK8Zf7issDl0pUz2TW/8Z0xOcztR12mUGFYj2M7V5i8WyZHDWX7EKgTJE/MNm+NAnOFZJCYSd84k2m1kKWcz+TAUCbMWArD+pwb5CvUYXTZzDFDaZhJMZJMDkg7W74Mk4HsxmozyeQ3aOyIyZ6hbMrnHgsqCsPmHE6eQhFlx+SYoWyZjOwjeTmypUI/i1wx0mMyk5GtzSS3XhZ6TpjsGcqAHUph2B6EGbyIkln1CYeGsmXSPpJXri7jutA1tZiMpYVk+kx63Nufblww2VjGaPAvCsP2I+0EnlFgmGxrnEsrTL4LkdxxictDtQYmU+n8o89kf49YFJbWmWxNo9/7Z5Vh015QU8KXA9jV8WBwS+3ZyR6SbA7o17N0z2QpL8NcgMnhxsXM9ywzydhG3kwqDFv0s//wIkqWydZQEvNM1jUHJY8klwNSaehnksm2zjx/M8rkyG7aIoytMskYx97cAB52uMIdgidvropoYCiNMVk/TGE9geSJa/W3IJIaTHb7cYhhJt+8kd6zaWyTydY69pOV4GHDQTXKBlyHwTE5MJSmmKyf83M9hiSfA9rvPxa8MJnLJIkg+aRlmGSv1tnKxCKT3SJn776Bhx2ZqcFr+Xy1ZdK7qYaYrFunsR4ieWkboGp3vliKSc9n8rOlBSbvPfUG3z337DHZS/5R1WHHIpocWkTZqwDuvRdmmKwZ3Oo+ktdqsOJtn8mCsirAZRzLMTnW7i/z7DHJF92UqsMmI6sLPnTy7jHp83fVCJM1B1zNI/ndO9thV7lgcm5l0ZJMvj12dM+FUpdJzlCmysOOZchj6FJ+f6cEbyhNMFkPWlIxSNa9esrrskhCY5wpFZs3m0zevIaE6wOU22PSHy2FBg4bj2ZyM+CP6DPJG0oDTDJIfl1/O5K3K4jnjx6ySyOpyaS0afLiTN6fAVtrkFhjkjGUqfKwyWgmNwAWUQ52lHGGcnkmn8idL7ttmwhvLOM96fNjFEktJimBkrAok7cpvHNowV2b9ZncjF0TOOx4ZVoJrMMYMNlgmBlh8o7k4VozGcfjRwPl/Vymq1kk5zOZgdLWZphkGwAG1ph8G9sQBhvWm7DqEawOY7jzljKu6OJMXne9mrObL/n0IQ+9HJAJJMFMBpx84imRsDSTTLlQZI9JMmKaYcNORdgprIhyyCTbX8RsrVoT3jyg7OeAjCCZQZnUq8ZZnsk31QaUCzD5/G+B+rDpxN3ewH7DSIcCxlCarjN/UniD8r1/vqcJJME1vetjsq1hC+0xSYYeLGzYYuqrwn7DCJOMoTTM5BPJw/ex6u+pNYLkf8xkOx9m9pi8H2BBS/VhN5MrXjnIARnr5NIZSsN7xA77r8/WwazNIyk3MutlsnWfLDI5c9hpt9EHFVGOMdl2QTS9l3bb9FrZ7vjMpCEkwXtp18hkCK6rcc1kpPkcRjteNVGeb6HnwKn+PvBVQuaQBPccWCOTPnB51DmTpW6sOcpkayjN9mZ5/9hdznu+IMPAGrfCcveamST/C5MQPy9WZrLbV9s8ouVbR/9c+KYsHZS1MSTlrUGQSf1hISf1JOpMxoNU89J0XPdD1U39uTG9GWaSQpgkf5tJUAs+qs5k3/4u3hN1DMlfKE0iSS0xWSwA1eTHy5UzmWjPWBNM9s7vW7p39DiSZm1kpd87GrwEGIse1sz+FmpfzR2T4gbbKSDanOo0HfSYTGwgqd+IV8OLWYLJRHShTL7aSyjdSJ51sXImPfGfbACVoFNM8oZy2bNIJpFccofirLBbl0nRWSRE7kAQgQUhYP/DLZOytHglf7UmO/IHvdjAApIHs1YSQpruwQvF9NSUyY11JJjWKNjWu2VStnyYy+swJpnkDCUwwtdD8vNoGMnMPJONuzQ8qDuUp+ZKga8VVGreqDMmZa67L/ftp08uSXgmQ9NI/lSmFZpnsnVx+lCGFXDqfjwvbxJJ6MG0rpiUlqPF8slbcJpOxDHpm0XyvDWOpNZZyYrP9nbPAwYskkF82m5hIuJbBDFbcvyVM5lKb2AmzWkJmPQ5JmOjSF6O5pGcf6a8gpjF3iL1fzc1sXsPc8jM//vh59eN2YYHps/v1maykP7MQDpriU4di7jgIDKI5M4CkaBtA/qHy4krqMQHznq9exxRKj5Ta3VMErk5L6WPQ8SkzzEZGkPya2sDSVCF9gIHHopWFwrJIsywpRoveItUR0xCCuoi2d8IT2eMWCY3ppD8PFpBEvRAlziEc/rlzaRmzhOlNwqFwyAcMRkBMhypLKslZJJwiT0zSJ4/KkvyLDHJRjQcUoEm0Sodex0xCbnsRvZH4lNsM/YR5SaQtGUkgX1NEsVQYioJN9KrD9pBkkyUuwRK3XqpUoa9NV4yhiOJu0ghdSKFJAORC79749/04/ClkLRnJIFZFO9hpqj+GZyblHMNs0SBqDjV79Rb0vFE5+QPf0ApPWniMazA4P8OI6l1eYAUTbtSnvi7/34Hv5c+WwpJe0YSOHXffyUh8dsiKpPw0SowDTbKDclJwHQYjGYd/xAT4in+fQy6P+IXNvaDDeBSpc53Kbufli+LpE0jqdKSbDW63Xoie3qvLn9RJL9tGkn9AwxRq5S3IJKHU2VXHj6/P6l0KSTPP5aJBJ2phvoPRRZC8nq0jWS1waf3RxUtgeTlZJ1IcIs81H+nRB/Jr7pyoACf3Z+NcgpNJM+7yokwwsEoZwLJ76MbJDHC+cOKdZC8vleOFOOTQ0M5guRl64pI7ZIK1KpVzkTSIZGzu6Gg/hPROUg6JRLN5F8XUUfyyymRaCbRo2xUW2oChGYSBQq9j2x/crdIVljshYayak4Hq1dhJzE3+QKSL+Y0p4PVVrpKilVgbvIVFECQZKD8dskkrnS/hiIIkh2UB4dIRrjSjfkg9iTPBsqjOyaxbhLDHP5w2SeUH86QzPFZYZjDn3f8hHLnLMDBmft1NNk86HvkeJHzxRWTCT6pF9LkXu/jdrv92e12l8ulOUdx+44zN2oNScpfvTtc68aZG2PvtQlj7ldTsHYkQ3xGLye6biQzfELoUq5LuM79kirXzCQW8r6m/PUiiZnJV1W6ViSxaPJ1la8TSdzu8MpxTrbKkBuT5QjluoQ1k68efK8uI1TgpjCEEpFEIZSIJOr/gRKRRK0MSkQS1UAZrSTiRiRR60oJYV4SxUK5gso1ikiiODlf+8Y1blRfiVsk8UBF1FDEYfhdYL0kakxxhtENam0KcTsYam3aFDhvo9aWFLJe5pvjvI2Sxd9WTWWBnQVQ6zKVaCRRQK/S0vp3hJ4kCmwqbXRuKbBXOUpFsfG1xhSnbZSiiNGyDIq9V1CropKiI4laFZUpEolak19ZpDhro7Rj8AUzQ1GCkQ1qCW1ynLRRqzOWvnYdW+6jiUQt7FkmOQKJWp213KQzfMso3SCQKJPm0k8VpvEs9THMRtmwlyRJpZlLmiYY0qAsW0ziByGlvdk8ojQMfIKzNUqof9L21lpxAGshAAAAGXRFWHRTb2Z0d2FyZQBBZG9iZSBJbWFnZVJlYWR5ccllPAAAAABJRU5ErkJggg==;" vertex="1" parent="1">
          <mxGeometry x="880" y="-225" width="230.65" height="70" as="geometry" />
        </mxCell>
        <mxCell id="sIa1EOM6SMQ7vBQXaoTd-9" value="" style="outlineConnect=0;dashed=0;verticalLabelPosition=bottom;verticalAlign=top;align=center;html=1;shape=mxgraph.aws3.internet_gateway;fillColor=#F58534;gradientColor=none;" vertex="1" parent="1">
          <mxGeometry x="670" y="-230" width="70" height="75" as="geometry" />
        </mxCell>
        <mxCell id="sIa1EOM6SMQ7vBQXaoTd-10" style="edgeStyle=orthogonalEdgeStyle;rounded=0;orthogonalLoop=1;jettySize=auto;html=1;entryX=0.5;entryY=0;entryDx=0;entryDy=0;entryPerimeter=0;" edge="1" parent="1" source="sIa1EOM6SMQ7vBQXaoTd-7" target="sIa1EOM6SMQ7vBQXaoTd-9">
          <mxGeometry relative="1" as="geometry" />
        </mxCell>
        <mxCell id="R1Pq4dBKGzLEdOx824vv-43" value="Diagrama" style="" parent="0" />
      </root>
    </mxGraphModel>
  </diagram>
</mxfile>
